<svg xmlns="http://www.w3.org/2000/svg" width="19.045" height="18.713" viewBox="0 0 19.045 18.713">
  <g id="Group_2237" data-name="Group 2237" transform="translate(2211.5 267.591)">
    <path id="Path_2562" data-name="Path 2562" d="M12,20h8.307" transform="translate(-2220.5 -269.879)" fill="none" stroke="#00a6be" stroke-linecap="round" stroke-linejoin="round" stroke-width="2"/>
    <g id="Group_2158" data-name="Group 2158" transform="translate(-2211 -267.091)">
      <path id="Path_2372" data-name="Path 2372" d="M541.684,284H529.446a.417.417,0,0,0-.446.381v1.742a.451.451,0,0,0,.891,0v-1.362h5.228V298.4h-1.1a.385.385,0,1,0,0,.761h3.084a.385.385,0,1,0,0-.761h-1.1V284.761h5.228v1.362a.451.451,0,0,0,.891,0v-1.742a.417.417,0,0,0-.446-.381Zm0,0" transform="translate(-529 -284)" fill="#2a2a2a" stroke="#000" stroke-width="1"/>
    </g>
    <path id="Path_2383" data-name="Path 2383" d="M628.005,373.125l-1.713-1.714a.319.319,0,0,0-.442-.009l-5.009,4.61,0,0-.012.013-.009.01-.011.014-.008.01-.01.016-.006.01-.01.019,0,.009c0,.007-.006.014-.008.021l0,.008-.006.021,0,.009c0,.007,0,.013,0,.02s0,.008,0,.012,0,.012,0,.018,0,.008,0,.012v.006l0,1.414-.605.605a.319.319,0,0,0,.069.5l.692.391a.319.319,0,0,0,.382-.052l.434-.434,1.472.016h.04l.012,0,.019,0,.011,0,.02-.006.01,0,.02-.008.01,0,.018-.009.011-.006.016-.01.011-.008.014-.011.011-.009.012-.012.005-.005,4.6-5.02a.319.319,0,0,0-.009-.441Zm-6.272,4.911-.361-.361,0-.659,1.028,1.028Zm1.437-.126-1.653-1.653,4.54-4.178,1.281,1.281Zm0,0" transform="translate(-2820.554 -629.2)" fill="#2a2a2a"/>
  </g>
</svg>
