<svg id="Group_2238" data-name="Group 2238" xmlns="http://www.w3.org/2000/svg" width="12.157" height="17.099" viewBox="0 0 12.157 17.099">
  <path id="Path_2323" data-name="Path 2323" d="M545.57,299.172a4.271,4.271,0,0,0,1.732-3.6v-.046a4.177,4.177,0,0,0-1.133-2.933l-.011-.011A6.008,6.008,0,0,0,541.752,291h-5.2a.547.547,0,0,0-.547.547v16.005a.547.547,0,0,0,.547.547h5.49a7.121,7.121,0,0,0,4.379-1.268,4.427,4.427,0,0,0,1.741-3.646v-.046a4.193,4.193,0,0,0-2.588-3.968Zm-3.488,6.21h-3.276v-4.554h2.969a4.972,4.972,0,0,1,2.743.624,1.775,1.775,0,0,1,.791,1.573v.046c0,2.086-2.256,2.311-3.227,2.311Zm-.616-7.248h-2.66v-4.416H541.6c1.814,0,2.854.751,2.854,2.06v.046c0,2.011-1.871,2.311-2.987,2.311Zm0,0" transform="translate(-536 -291)" fill="#2a2a2a"/>
</svg>
