<svg xmlns="http://www.w3.org/2000/svg" width="16.136" height="16.136" viewBox="0 0 16.136 16.136">
  <path id="ic_sentiment_very_satisfied_24px" d="M10.06,2a8.068,8.068,0,1,0,8.076,8.068A8.059,8.059,0,0,0,10.06,2Zm.008,14.522a6.454,6.454,0,1,1,6.454-6.454A6.453,6.453,0,0,1,10.068,16.522Zm.807-8.116.855.855.855-.855.855.855.855-.855L12.585,6.7Zm-3.324,0,.855.855.855-.855L7.551,6.7,5.84,8.406l.855.855Zm2.517,6.1a4.434,4.434,0,0,0,4.123-2.824H5.945A4.434,4.434,0,0,0,10.068,14.505Z" transform="translate(-2 -2)" fill="#2a2a2a"/>
</svg>
