<svg xmlns="http://www.w3.org/2000/svg" width="11.353" height="11.356" viewBox="0 0 11.353 11.356">
  <path id="ios-quote" d="M10.759,6.75H8.453a1.708,1.708,0,0,0-1.7,1.7v4.541a1.708,1.708,0,0,0,1.7,1.7H9.826A.286.286,0,0,1,10.11,15,4.327,4.327,0,0,1,9,17.631a.284.284,0,0,0,.209.475h1.415a.275.275,0,0,0,.224-.11,5.488,5.488,0,0,0,1.011-3.331V7.853a1.075,1.075,0,0,0-1.1-1.1ZM17,6.75H14.7a1.708,1.708,0,0,0-1.7,1.7v4.541a1.708,1.708,0,0,0,1.7,1.7H16.07a.286.286,0,0,1,.284.305,4.327,4.327,0,0,1-1.111,2.629.284.284,0,0,0,.209.475h1.415a.275.275,0,0,0,.224-.11A5.488,5.488,0,0,0,18.1,14.665V7.853A1.075,1.075,0,0,0,17,6.75Z" transform="translate(-6.75 -6.75)" fill="#2a2a2a"/>
</svg>
