<svg xmlns="http://www.w3.org/2000/svg" width="21.439" height="18.014" viewBox="0 0 21.439 18.014">
  <path id="Path_2570" data-name="Path 2570" d="M482.566,338.744c0,.009,0,.018,0,.028s0,.018,0,.026l.007.03c0,.008,0,.015.006.023s.006.02.009.03l.008.023.011.027.011.024.013.024a.255.255,0,0,0,.015.025l.014.021.019.024.016.019.02.022.02.02.019.018.026.021.012.009,0,0a.556.556,0,0,0,.069.041l.013.006a.573.573,0,0,0,.07.029h0a.55.55,0,0,0,.074.017l.02,0a.543.543,0,0,0,.072.005h19.306A.568.568,0,0,0,503,338.7V322.819a.568.568,0,0,0-.569-.569h-19.3a.569.569,0,0,0-.569.569V338.7c0,.006,0,.011,0,.017s0,.021,0,.031Zm14.047-.617L495.134,336l2.013-2.605,3.737,4.734Zm-1.385,0H484.24l5.579-7.785Zm6.637-14.74v14.148l-4.277-5.418a.569.569,0,0,0-.447-.216h0a.568.568,0,0,0-.447.221l-2.239,2.9-4.16-5.987a.568.568,0,0,0-.463-.244.559.559,0,0,0-.466.237l-5.663,7.9V323.387Zm0,0" transform="translate(-482.064 -321.75)" fill="#2a2a2a" stroke="#2a2a2a" stroke-width="1"/>
</svg>
