<svg xmlns="http://www.w3.org/2000/svg" xmlns:xlink="http://www.w3.org/1999/xlink" width="102" height="368" viewBox="0 0 102 368">
  <defs>
    <clipPath id="clip-path">
      <rect id="Rectangle_1031" data-name="Rectangle 1031" width="102" height="368" transform="translate(0 475)" fill="#fff" stroke="#707070" stroke-width="1"/>
    </clipPath>
  </defs>
  <g id="Mask_Group_2" data-name="Mask Group 2" transform="translate(0 -475)" clip-path="url(#clip-path)">
    <g id="Group_2330" data-name="Group 2330" transform="translate(-68 670)" opacity="0.5">
      <rect id="Rectangle_910" data-name="Rectangle 910" width="2.07" height="2.07" transform="translate(10.077 -77.924)" fill="#fff"/>
      <rect id="Rectangle_911" data-name="Rectangle 911" width="2.07" height="2.07" transform="translate(10.077 -65.411)" fill="#fff"/>
      <rect id="Rectangle_912" data-name="Rectangle 912" width="2.07" height="2.07" transform="translate(10.077 -52.898)" fill="#fff"/>
      <rect id="Rectangle_913" data-name="Rectangle 913" width="2.07" height="2.07" transform="translate(10.077 -40.385)" fill="#fff"/>
      <rect id="Rectangle_914" data-name="Rectangle 914" width="2.07" height="2.07" transform="translate(10.077 -27.872)" fill="#fff"/>
      <rect id="Rectangle_915" data-name="Rectangle 915" width="2.07" height="2.07" transform="translate(10.077 -15.359)" fill="#fff"/>
      <rect id="Rectangle_916" data-name="Rectangle 916" width="2.07" height="2.07" transform="translate(10.077 -2.846)" fill="#fff"/>
      <rect id="Rectangle_917" data-name="Rectangle 917" width="2.07" height="2.07" transform="translate(10.077 9.667)" fill="#fff"/>
      <rect id="Rectangle_918" data-name="Rectangle 918" width="2.07" height="2.07" transform="translate(10.077 22.18)" fill="#fff"/>
      <rect id="Rectangle_919" data-name="Rectangle 919" width="2.07" height="2.07" transform="translate(10.077 34.693)" fill="#fff"/>
      <rect id="Rectangle_920" data-name="Rectangle 920" width="2.07" height="2.07" transform="translate(10.077 47.206)" fill="#fff"/>
      <rect id="Rectangle_921" data-name="Rectangle 921" width="2.07" height="2.07" transform="translate(21.406 -77.924)" fill="#fff"/>
      <rect id="Rectangle_922" data-name="Rectangle 922" width="2.07" height="2.07" transform="translate(21.406 -65.411)" fill="#fff"/>
      <rect id="Rectangle_923" data-name="Rectangle 923" width="2.07" height="2.07" transform="translate(21.406 -52.898)" fill="#fff"/>
      <rect id="Rectangle_924" data-name="Rectangle 924" width="2.07" height="2.07" transform="translate(21.406 -40.385)" fill="#fff"/>
      <rect id="Rectangle_925" data-name="Rectangle 925" width="2.07" height="2.07" transform="translate(21.406 -27.872)" fill="#fff"/>
      <rect id="Rectangle_926" data-name="Rectangle 926" width="2.07" height="2.07" transform="translate(21.406 -15.359)" fill="#fff"/>
      <rect id="Rectangle_927" data-name="Rectangle 927" width="2.07" height="2.07" transform="translate(21.406 -2.846)" fill="#fff"/>
      <rect id="Rectangle_928" data-name="Rectangle 928" width="2.07" height="2.07" transform="translate(21.406 9.667)" fill="#fff"/>
      <rect id="Rectangle_929" data-name="Rectangle 929" width="2.07" height="2.07" transform="translate(21.406 22.18)" fill="#fff"/>
      <rect id="Rectangle_930" data-name="Rectangle 930" width="2.07" height="2.07" transform="translate(21.406 34.693)" fill="#fff"/>
      <rect id="Rectangle_931" data-name="Rectangle 931" width="2.07" height="2.07" transform="translate(21.406 47.206)" fill="#fff"/>
      <rect id="Rectangle_932" data-name="Rectangle 932" width="2.07" height="2.07" transform="translate(32.736 -77.924)" fill="#fff"/>
      <rect id="Rectangle_933" data-name="Rectangle 933" width="2.07" height="2.07" transform="translate(32.736 -65.411)" fill="#fff"/>
      <rect id="Rectangle_934" data-name="Rectangle 934" width="2.07" height="2.07" transform="translate(32.736 -52.898)" fill="#fff"/>
      <rect id="Rectangle_935" data-name="Rectangle 935" width="2.07" height="2.07" transform="translate(32.736 -40.385)" fill="#fff"/>
      <rect id="Rectangle_936" data-name="Rectangle 936" width="2.07" height="2.07" transform="translate(32.736 -27.872)" fill="#fff"/>
      <rect id="Rectangle_937" data-name="Rectangle 937" width="2.07" height="2.07" transform="translate(32.736 -15.359)" fill="#fff"/>
      <rect id="Rectangle_938" data-name="Rectangle 938" width="2.07" height="2.07" transform="translate(32.736 -2.846)" fill="#fff"/>
      <rect id="Rectangle_939" data-name="Rectangle 939" width="2.07" height="2.07" transform="translate(32.736 9.667)" fill="#fff"/>
      <rect id="Rectangle_940" data-name="Rectangle 940" width="2.07" height="2.07" transform="translate(32.736 22.18)" fill="#fff"/>
      <rect id="Rectangle_941" data-name="Rectangle 941" width="2.07" height="2.07" transform="translate(32.736 34.693)" fill="#fff"/>
      <rect id="Rectangle_942" data-name="Rectangle 942" width="2.07" height="2.07" transform="translate(32.736 47.206)" fill="#fff"/>
      <rect id="Rectangle_943" data-name="Rectangle 943" width="2.07" height="2.07" transform="translate(44.065 -77.924)" fill="#fff"/>
      <rect id="Rectangle_944" data-name="Rectangle 944" width="2.07" height="2.07" transform="translate(44.065 -65.411)" fill="#fff"/>
      <rect id="Rectangle_945" data-name="Rectangle 945" width="2.07" height="2.07" transform="translate(44.065 -52.898)" fill="#fff"/>
      <rect id="Rectangle_946" data-name="Rectangle 946" width="2.07" height="2.07" transform="translate(44.065 -40.385)" fill="#fff"/>
      <rect id="Rectangle_947" data-name="Rectangle 947" width="2.07" height="2.07" transform="translate(44.065 -27.872)" fill="#fff"/>
      <rect id="Rectangle_948" data-name="Rectangle 948" width="2.07" height="2.07" transform="translate(44.065 -15.359)" fill="#fff"/>
      <rect id="Rectangle_949" data-name="Rectangle 949" width="2.07" height="2.07" transform="translate(44.065 -2.846)" fill="#fff"/>
      <rect id="Rectangle_950" data-name="Rectangle 950" width="2.07" height="2.07" transform="translate(44.065 9.667)" fill="#fff"/>
      <rect id="Rectangle_951" data-name="Rectangle 951" width="2.07" height="2.07" transform="translate(44.065 22.18)" fill="#fff"/>
      <rect id="Rectangle_952" data-name="Rectangle 952" width="2.07" height="2.07" transform="translate(44.065 34.693)" fill="#fff"/>
      <rect id="Rectangle_953" data-name="Rectangle 953" width="2.07" height="2.07" transform="translate(44.065 47.206)" fill="#fff"/>
      <rect id="Rectangle_954" data-name="Rectangle 954" width="2.07" height="2.07" transform="translate(55.394 -77.924)" fill="#fff"/>
      <rect id="Rectangle_955" data-name="Rectangle 955" width="2.07" height="2.07" transform="translate(55.394 -65.411)" fill="#fff"/>
      <rect id="Rectangle_956" data-name="Rectangle 956" width="2.07" height="2.07" transform="translate(55.394 -52.898)" fill="#fff"/>
      <rect id="Rectangle_957" data-name="Rectangle 957" width="2.07" height="2.07" transform="translate(55.394 -40.385)" fill="#fff"/>
      <rect id="Rectangle_958" data-name="Rectangle 958" width="2.07" height="2.07" transform="translate(55.394 -27.872)" fill="#fff"/>
      <rect id="Rectangle_959" data-name="Rectangle 959" width="2.07" height="2.07" transform="translate(55.394 -15.359)" fill="#fff"/>
      <rect id="Rectangle_960" data-name="Rectangle 960" width="2.07" height="2.07" transform="translate(55.394 -2.846)" fill="#fff"/>
      <rect id="Rectangle_961" data-name="Rectangle 961" width="2.07" height="2.07" transform="translate(55.394 9.667)" fill="#fff"/>
      <rect id="Rectangle_962" data-name="Rectangle 962" width="2.07" height="2.07" transform="translate(55.394 22.18)" fill="#fff"/>
      <rect id="Rectangle_963" data-name="Rectangle 963" width="2.07" height="2.07" transform="translate(55.394 34.693)" fill="#fff"/>
      <rect id="Rectangle_964" data-name="Rectangle 964" width="2.07" height="2.07" transform="translate(55.394 47.206)" fill="#fff"/>
      <rect id="Rectangle_965" data-name="Rectangle 965" width="2.07" height="2.07" transform="translate(66.724 -77.924)" fill="#fff"/>
      <rect id="Rectangle_966" data-name="Rectangle 966" width="2.07" height="2.07" transform="translate(66.724 -65.411)" fill="#fff"/>
      <rect id="Rectangle_967" data-name="Rectangle 967" width="2.07" height="2.07" transform="translate(66.724 -52.898)" fill="#fff"/>
      <rect id="Rectangle_968" data-name="Rectangle 968" width="2.07" height="2.07" transform="translate(66.724 -40.385)" fill="#fff"/>
      <rect id="Rectangle_969" data-name="Rectangle 969" width="2.07" height="2.07" transform="translate(66.724 -27.872)" fill="#fff"/>
      <rect id="Rectangle_970" data-name="Rectangle 970" width="2.07" height="2.07" transform="translate(66.724 -15.359)" fill="#fff"/>
      <rect id="Rectangle_971" data-name="Rectangle 971" width="2.07" height="2.07" transform="translate(66.724 -2.846)" fill="#fff"/>
      <rect id="Rectangle_972" data-name="Rectangle 972" width="2.07" height="2.07" transform="translate(66.724 9.667)" fill="#fff"/>
      <rect id="Rectangle_973" data-name="Rectangle 973" width="2.07" height="2.07" transform="translate(66.724 22.18)" fill="#fff"/>
      <rect id="Rectangle_974" data-name="Rectangle 974" width="2.07" height="2.07" transform="translate(66.724 34.693)" fill="#fff"/>
      <rect id="Rectangle_975" data-name="Rectangle 975" width="2.07" height="2.07" transform="translate(66.724 47.206)" fill="#fff"/>
      <rect id="Rectangle_976" data-name="Rectangle 976" width="2.07" height="2.07" transform="translate(78.053 -77.924)" fill="#fff"/>
      <rect id="Rectangle_977" data-name="Rectangle 977" width="2.07" height="2.07" transform="translate(78.053 -65.411)" fill="#fff"/>
      <rect id="Rectangle_978" data-name="Rectangle 978" width="2.07" height="2.07" transform="translate(78.053 -52.898)" fill="#fff"/>
      <rect id="Rectangle_979" data-name="Rectangle 979" width="2.07" height="2.07" transform="translate(78.053 -40.385)" fill="#fff"/>
      <rect id="Rectangle_980" data-name="Rectangle 980" width="2.07" height="2.07" transform="translate(78.053 -27.872)" fill="#fff"/>
      <rect id="Rectangle_981" data-name="Rectangle 981" width="2.07" height="2.07" transform="translate(78.053 -15.359)" fill="#fff"/>
      <rect id="Rectangle_982" data-name="Rectangle 982" width="2.07" height="2.07" transform="translate(78.053 -2.846)" fill="#fff"/>
      <rect id="Rectangle_983" data-name="Rectangle 983" width="2.07" height="2.07" transform="translate(78.053 9.667)" fill="#fff"/>
      <rect id="Rectangle_984" data-name="Rectangle 984" width="2.07" height="2.07" transform="translate(78.053 22.18)" fill="#fff"/>
      <rect id="Rectangle_985" data-name="Rectangle 985" width="2.07" height="2.07" transform="translate(78.053 34.693)" fill="#fff"/>
      <rect id="Rectangle_986" data-name="Rectangle 986" width="2.07" height="2.07" transform="translate(78.053 47.206)" fill="#fff"/>
      <rect id="Rectangle_987" data-name="Rectangle 987" width="2.07" height="2.07" transform="translate(89.382 -77.924)" fill="#fff"/>
      <rect id="Rectangle_988" data-name="Rectangle 988" width="2.07" height="2.07" transform="translate(89.382 -65.411)" fill="#fff"/>
      <rect id="Rectangle_989" data-name="Rectangle 989" width="2.07" height="2.07" transform="translate(89.382 -52.898)" fill="#fff"/>
      <rect id="Rectangle_990" data-name="Rectangle 990" width="2.07" height="2.07" transform="translate(89.382 -40.385)" fill="#fff"/>
      <rect id="Rectangle_991" data-name="Rectangle 991" width="2.07" height="2.07" transform="translate(89.382 -27.872)" fill="#fff"/>
      <rect id="Rectangle_992" data-name="Rectangle 992" width="2.07" height="2.07" transform="translate(89.382 -15.359)" fill="#fff"/>
      <rect id="Rectangle_993" data-name="Rectangle 993" width="2.07" height="2.07" transform="translate(89.382 -2.846)" fill="#fff"/>
      <rect id="Rectangle_994" data-name="Rectangle 994" width="2.07" height="2.07" transform="translate(89.382 9.667)" fill="#fff"/>
      <rect id="Rectangle_995" data-name="Rectangle 995" width="2.07" height="2.07" transform="translate(89.382 22.18)" fill="#fff"/>
      <rect id="Rectangle_996" data-name="Rectangle 996" width="2.07" height="2.07" transform="translate(89.382 34.693)" fill="#fff"/>
      <rect id="Rectangle_997" data-name="Rectangle 997" width="2.07" height="2.07" transform="translate(89.382 47.206)" fill="#fff"/>
      <rect id="Rectangle_998" data-name="Rectangle 998" width="2.07" height="2.07" transform="translate(100.711 -77.924)" fill="#fff"/>
      <rect id="Rectangle_999" data-name="Rectangle 999" width="2.07" height="2.07" transform="translate(100.711 -65.411)" fill="#fff"/>
      <rect id="Rectangle_1000" data-name="Rectangle 1000" width="2.07" height="2.07" transform="translate(100.711 -52.898)" fill="#fff"/>
      <rect id="Rectangle_1001" data-name="Rectangle 1001" width="2.07" height="2.07" transform="translate(100.711 -40.385)" fill="#fff"/>
      <rect id="Rectangle_1002" data-name="Rectangle 1002" width="2.07" height="2.07" transform="translate(100.711 -27.872)" fill="#fff"/>
      <rect id="Rectangle_1003" data-name="Rectangle 1003" width="2.07" height="2.07" transform="translate(100.711 -15.359)" fill="#fff"/>
      <rect id="Rectangle_1004" data-name="Rectangle 1004" width="2.07" height="2.07" transform="translate(100.711 -2.846)" fill="#fff"/>
      <rect id="Rectangle_1005" data-name="Rectangle 1005" width="2.07" height="2.07" transform="translate(100.711 9.667)" fill="#fff"/>
      <rect id="Rectangle_1006" data-name="Rectangle 1006" width="2.07" height="2.07" transform="translate(100.711 22.18)" fill="#fff"/>
      <rect id="Rectangle_1007" data-name="Rectangle 1007" width="2.07" height="2.07" transform="translate(100.711 34.693)" fill="#fff"/>
      <rect id="Rectangle_1008" data-name="Rectangle 1008" width="2.07" height="2.07" transform="translate(100.711 47.206)" fill="#fff"/>
      <rect id="Rectangle_1009" data-name="Rectangle 1009" width="2.07" height="2.07" transform="translate(112.041 -77.924)" fill="#fff"/>
      <rect id="Rectangle_1010" data-name="Rectangle 1010" width="2.07" height="2.07" transform="translate(112.041 -65.411)" fill="#fff"/>
      <rect id="Rectangle_1011" data-name="Rectangle 1011" width="2.07" height="2.07" transform="translate(112.041 -52.898)" fill="#fff"/>
      <rect id="Rectangle_1012" data-name="Rectangle 1012" width="2.07" height="2.07" transform="translate(112.041 -40.385)" fill="#fff"/>
      <rect id="Rectangle_1013" data-name="Rectangle 1013" width="2.07" height="2.07" transform="translate(112.041 -27.872)" fill="#fff"/>
      <rect id="Rectangle_1014" data-name="Rectangle 1014" width="2.07" height="2.07" transform="translate(112.041 -15.359)" fill="#fff"/>
      <rect id="Rectangle_1015" data-name="Rectangle 1015" width="2.07" height="2.07" transform="translate(112.041 -2.846)" fill="#fff"/>
      <rect id="Rectangle_1016" data-name="Rectangle 1016" width="2.07" height="2.07" transform="translate(112.041 9.667)" fill="#fff"/>
      <rect id="Rectangle_1017" data-name="Rectangle 1017" width="2.07" height="2.07" transform="translate(112.041 22.18)" fill="#fff"/>
      <rect id="Rectangle_1018" data-name="Rectangle 1018" width="2.07" height="2.07" transform="translate(112.041 34.693)" fill="#fff"/>
      <rect id="Rectangle_1019" data-name="Rectangle 1019" width="2.07" height="2.07" transform="translate(112.041 47.206)" fill="#fff"/>
      <rect id="Rectangle_1020" data-name="Rectangle 1020" width="2.07" height="2.07" transform="translate(123.37 -77.924)" fill="#fff"/>
      <rect id="Rectangle_1021" data-name="Rectangle 1021" width="2.07" height="2.07" transform="translate(123.37 -65.411)" fill="#fff"/>
      <rect id="Rectangle_1022" data-name="Rectangle 1022" width="2.07" height="2.07" transform="translate(123.37 -52.898)" fill="#fff"/>
      <rect id="Rectangle_1023" data-name="Rectangle 1023" width="2.07" height="2.07" transform="translate(123.37 -40.385)" fill="#fff"/>
      <rect id="Rectangle_1024" data-name="Rectangle 1024" width="2.07" height="2.07" transform="translate(123.37 -27.872)" fill="#fff"/>
      <rect id="Rectangle_1025" data-name="Rectangle 1025" width="2.07" height="2.07" transform="translate(123.37 -15.359)" fill="#fff"/>
      <rect id="Rectangle_1026" data-name="Rectangle 1026" width="2.07" height="2.07" transform="translate(123.37 -2.846)" fill="#fff"/>
      <rect id="Rectangle_1027" data-name="Rectangle 1027" width="2.07" height="2.07" transform="translate(123.37 9.667)" fill="#fff"/>
      <rect id="Rectangle_1028" data-name="Rectangle 1028" width="2.07" height="2.07" transform="translate(123.37 22.18)" fill="#fff"/>
      <rect id="Rectangle_1029" data-name="Rectangle 1029" width="2.07" height="2.07" transform="translate(123.37 34.693)" fill="#fff"/>
      <rect id="Rectangle_1030" data-name="Rectangle 1030" width="2.07" height="2.07" transform="translate(123.37 47.206)" fill="#fff"/>
    </g>
    <g id="Group_2331" data-name="Group 2331" transform="translate(-17 396)" opacity="0.5">
      <path id="Path_2576" data-name="Path 2576" d="M-114.552,528.217V194.6A115.848,115.848,0,0,1,1.3,78.753h0A115.848,115.848,0,0,1,117.145,194.6V528.217" fill="none" stroke="#fff" stroke-miterlimit="10" stroke-width="1"/>
      <path id="Path_2577" data-name="Path 2577" d="M-97.66,528.217V194.6A99.069,99.069,0,0,1,1.3,95.645,99.069,99.069,0,0,1,100.254,194.6V528.217" fill="none" stroke="#fff" stroke-miterlimit="10" stroke-width="1"/>
      <path id="Path_2578" data-name="Path 2578" d="M-80.768,528.217V194.6A82.158,82.158,0,0,1,1.3,112.537,82.158,82.158,0,0,1,83.362,194.6V528.217" fill="none" stroke="#fff" stroke-miterlimit="10" stroke-width="1"/>
      <path id="Path_2579" data-name="Path 2579" d="M-63.876,528.217V194.6A65.247,65.247,0,0,1,1.3,129.429,65.247,65.247,0,0,1,66.47,194.6V528.217" fill="none" stroke="#fff" stroke-miterlimit="10" stroke-width="1"/>
      <path id="Path_2580" data-name="Path 2580" d="M-46.984,528.217V194.6A48.335,48.335,0,0,1,1.3,146.321,48.335,48.335,0,0,1,49.578,194.6V528.217" fill="none" stroke="#fff" stroke-miterlimit="10" stroke-width="1"/>
    </g>
  </g>
</svg>
